{"title":"Snow White And The Huntsman 2012 TS XviD Feel-Free","uid":7341681,"size":1513776333,"categoryP":"video","categoryS":"movies","magnet":"?xt=urn:btih:c52dfccb5d3ff79690dc139466f647e9178dadd0&amp;dn=Snow+White+And+The+Huntsman+2012+TS+XviD+Feel-Free&amp;tr=udp%3A%2F%2Ftracker.openbittorrent.com%3A80&amp;tr=udp%3A%2F%2Fopen.demonii.com%3A1337&amp;tr=udp%3A%2F%2Ftracker.coppersurfer.tk%3A6969&amp;tr=udp%3A%2F%2Fexodus.desync.com%3A6969","seeders":0,"leechers":0,"uploader":"hiest","files":-1,"time":1339258624,"description":"8888888888                888      8888888888                       \n888                       888      888                              \n888                       888      888                              \n8888888  .d88b.   .d88b.  888      8888888 888d888 .d88b.   .d88b.  \n888     d8P  Y8b d8P  Y8b 888      888     888P&quot;  d8P  Y8b d8P  Y8b \n888     88888888 88888888 888      888     888    88888888 88888888 \n888     Y8b.     Y8b.     888      888     888    Y8b.     Y8b.     \n888      &quot;Y8888   &quot;Y8888  888      888     888     &quot;Y8888   &quot;Y8888  \n\n\nGenre:Action | Adventure | Drama \nLanguage:English\nIMDb: &lt;a href=&quot;\nhttp://www.imdb.com/title/tt1735898&quot; rel=&quot;nofollow&quot; target=&quot;_NEW&quot;&gt;\nhttp://www.imdb.com/title/tt1735898&lt;/a&gt;\nSource:TS.LD.German/ADTRG Thanks!\nEncoder:Tony\n\nFormat : AVI\nFormat/Info : Audio Video Interleave\nFile size : 1.16 GiB\nDuration : 1h 57mn\nOverall bit rate : 1 414 Kbps\n\nVideo\nID : 0\nFormat : MPEG-4 Visual\nFormat profile : Advanced Simple@L5\nFormat settings, BVOP : 2\nFormat settings, QPel : No\nFormat settings, GMC : No warppoints\nFormat settings, Matrix : Default (H.263)\nMuxing mode : Packed bitstream\nCodec ID : XVID\nCodec ID/Hint : XviD\nDuration : 1h 57mn\nBit rate : 1 274 Kbps\nWidth : 720 pixels\nHeight : 320 pixels\nDisplay aspect ratio : 2.25:1\nFrame rate : 29.970 fps\nColor space : YUV\nChroma subsampling : 4:2:0\nBit depth : 8 bits\nScan type : Progressive\nCompression mode : Lossy\nBits/(Pixel*Frame) : 0.185\nStream size : 1.05 GiB (90%)\nWriting library : XviD 64\n\nAudio\nID : 1\nFormat : MPEG Audio\nCodec ID : 55\nCodec ID/Hint : MP3\nDuration : 1h 57mn\nBit rate : 128 Kbps\nChannel(s) : 2 channels\nSampling rate : 44.1 KHz\nCompression mode : Lossy\nStream size : 107 MiB (9%)\nAlignment : Split accross interleaves\nInterleave, duration : 33 ms (1.00 video frame)\nInterleave, preload duration : 500 ms\n\nPlot:\nIn a twist to the fairy tale, the Huntsman ordered to take Snow White into the woods to be killed winds up becoming her protector and mentor in a quest to vanquish the Evil Queen.\n\n\nScreen Shots:\n                &lt;a href=&quot;\nhttp://img138.imageshack.us/img138/3291/vlcsnap2012060818h07m13.png&quot; rel=&quot;nofollow&quot; target=&quot;_NEW&quot;&gt;\nhttp://img138.imageshack.us/img138/3291/vlcsnap2012060818h07m13.png&lt;/a&gt;\n &lt;a href=&quot;\nhttp://img803.imageshack.us/img803/9447/vlcsnap2012060818h06m37.png&quot; rel=&quot;nofollow&quot; target=&quot;_NEW&quot;&gt;\nhttp://img803.imageshack.us/img803/9447/vlcsnap2012060818h06m37.png&lt;/a&gt;\n &lt;a href=&quot;\nhttp://img845.imageshack.us/img845/1764/vlcsnap2012060818h06m08.png&quot; rel=&quot;nofollow&quot; target=&quot;_NEW&quot;&gt;\nhttp://img845.imageshack.us/img845/1764/vlcsnap2012060818h06m08.png&lt;/a&gt;\n &lt;a href=&quot;\nhttp://img580.imageshack.us/img580/1535/vlcsnap2012060817h38m53.png&quot; rel=&quot;nofollow&quot; target=&quot;_NEW&quot;&gt;\nhttp://img580.imageshack.us/img580/1535/vlcsnap2012060817h38m53.png&lt;/a&gt;\n &lt;a href=&quot;\nhttp://img195.imageshack.us/img195/4318/vlcsnap2012060817h40m04.png&quot; rel=&quot;nofollow&quot; target=&quot;_NEW&quot;&gt;\nhttp://img195.imageshack.us/img195/4318/vlcsnap2012060817h40m04.png&lt;/a&gt;\n &lt;a href=&quot;\nhttp://img717.imageshack.us/img717/7450/vlcsnap2012060818h05m01.png&quot; rel=&quot;nofollow&quot; target=&quot;_NEW&quot;&gt;\nhttp://img717.imageshack.us/img717/7450/vlcsnap2012060818h05m01.png&lt;/a&gt;\n\n\n8888888888                888      8888888888                       \n888                       888      888                              \n888                       888      888                              \n8888888  .d88b.   .d88b.  888      8888888 888d888 .d88b.   .d88b.  \n888     d8P  Y8b d8P  Y8b 888      888     888P&quot;  d8P  Y8b d8P  Y8b \n888     88888888 88888888 888      888     888    88888888 88888888 \n888     Y8b.     Y8b.     888      888     888    Y8b.     Y8b.     \n888      &quot;Y8888   &quot;Y8888  888      888     888     &quot;Y8888   &quot;Y8888  ","torrent":{"xt":"urn:btih:c52dfccb5d3ff79690dc139466f647e9178dadd0","amp;dn":"Snow+White+And+The+Huntsman+2012+TS+XviD+Feel-Free","amp;tr":["udp%3A%2F%2Ftracker.openbittorrent.com%3A80","udp%3A%2F%2Fopen.demonii.com%3A1337","udp%3A%2F%2Ftracker.coppersurfer.tk%3A6969","udp%3A%2F%2Fexodus.desync.com%3A6969"],"infoHash":"c52dfccb5d3ff79690dc139466f647e9178dadd0","infoHashBuffer":{"type":"Buffer","data":[197,45,252,203,93,63,247,150,144,220,19,148,102,246,71,233,23,141,173,208]},"announce":[],"urlList":[]}}